<svg width="6" height="10" viewBox="0 0 6 10" fill="none" xmlns="http://www.w3.org/2000/svg">
<path d="M6 4.12174V5.56957C6 6.34783 5.93043 7.00435 5.7913 7.53913C5.65217 8.07391 5.45217 8.50435 5.1913 8.83043C4.93043 9.15652 4.61522 9.39348 4.24565 9.5413C3.88043 9.68478 3.46739 9.75652 3.00652 9.75652C2.6413 9.75652 2.30435 9.71087 1.99565 9.61957C1.68696 9.52826 1.4087 9.38261 1.16087 9.18261C0.917391 8.97826 0.708696 8.71304 0.534783 8.38696C0.36087 8.06087 0.228261 7.66522 0.136957 7.2C0.0456522 6.73478 0 6.1913 0 5.56957V4.12174C0 3.34348 0.0695652 2.6913 0.208696 2.16522C0.352174 1.63913 0.554348 1.21739 0.815217 0.9C1.07609 0.578261 1.38913 0.347826 1.75435 0.208696C2.12391 0.0695652 2.53696 0 2.99348 0C3.36304 0 3.70217 0.0456522 4.01087 0.136957C4.32391 0.223913 4.60217 0.365217 4.84565 0.56087C5.08913 0.752174 5.29565 1.0087 5.46522 1.33043C5.63913 1.64783 5.77174 2.03696 5.86304 2.49783C5.95435 2.9587 6 3.5 6 4.12174ZM4.78696 5.76522V3.91957C4.78696 3.49348 4.76087 3.11957 4.7087 2.79783C4.66087 2.47174 4.58913 2.19348 4.49348 1.96304C4.39783 1.73261 4.27609 1.54565 4.12826 1.40217C3.98478 1.2587 3.81739 1.15435 3.62609 1.08913C3.43913 1.01957 3.22826 0.984783 2.99348 0.984783C2.70652 0.984783 2.45217 1.03913 2.23043 1.14783C2.0087 1.25217 1.82174 1.41957 1.66957 1.65C1.52174 1.88043 1.4087 2.18261 1.33043 2.55652C1.25217 2.93043 1.21304 3.38478 1.21304 3.91957V5.76522C1.21304 6.1913 1.23696 6.56739 1.28478 6.89348C1.33696 7.21957 1.41304 7.50217 1.51304 7.7413C1.61304 7.97609 1.73478 8.16957 1.87826 8.32174C2.02174 8.47391 2.18696 8.58696 2.37391 8.66087C2.56522 8.73043 2.77609 8.76522 3.00652 8.76522C3.30217 8.76522 3.56087 8.7087 3.78261 8.59565C4.00435 8.48261 4.18913 8.30652 4.33696 8.06739C4.48913 7.82391 4.60217 7.51304 4.67609 7.13478C4.75 6.75217 4.78696 6.29565 4.78696 5.76522Z" fill="black"/>
</svg>
