<svg width="276" height="273" viewBox="0 0 276 273" fill="none" xmlns="http://www.w3.org/2000/svg">
<path opacity="0.1" d="M224.055 136.509C224.055 183.514 185.531 221.619 138.009 221.619C90.487 221.619 51.9629 183.514 51.9629 136.509C51.9629 89.5033 90.487 51.3979 138.009 51.3979C185.531 51.3979 224.055 89.5033 224.055 136.509Z" fill="#B6B6B6"/>
<path d="M60.497 92.2401C58.0991 90.8707 55.0135 91.6887 53.7519 94.1436C43.2109 114.655 40.6628 138.357 46.7139 160.694C53.2011 184.642 69.0403 205.059 90.7469 217.455C112.453 229.852 138.25 233.211 162.46 226.794C185.043 220.809 204.521 206.775 217.209 187.49C218.728 185.182 217.901 182.13 215.503 180.76L138 136.5L60.497 92.2401Z" fill="#ACFF96"/>
<path d="M54.8534 183.983C52.4554 185.352 51.6294 188.404 53.1398 190.717C66.6976 211.48 87.6004 226.592 111.853 233.02C137.733 239.879 165.308 236.288 188.512 223.038C211.715 209.787 228.646 187.961 235.581 162.362C242.079 138.373 239.3 112.912 227.899 90.9162C226.629 88.4657 223.545 87.6476 221.147 89.017L138 136.5L54.8534 183.983Z" fill="#85D800"/>
<path d="M138.009 238.173C138.009 240.935 140.249 243.185 143.008 243.059C169.789 241.831 195.219 230.767 214.261 211.932C234.484 191.929 245.846 164.798 245.846 136.509C245.846 108.219 234.484 81.0889 214.261 61.0854C195.219 42.2504 169.789 31.1868 143.008 29.9586C140.249 29.8321 138.009 32.0826 138.009 34.844L138.009 136.509L138.009 238.173Z" fill="#009A5A"/>
<path d="M199.471 136.509C199.471 170.084 171.953 197.302 138.009 197.302C104.065 197.302 76.5479 170.084 76.5479 136.509C76.5479 102.933 104.065 75.7153 138.009 75.7153C171.953 75.7153 199.471 102.933 199.471 136.509Z" fill="white"/>
<path d="M146.63 128.487V127.547C146.63 126.872 146.776 126.257 147.069 125.704C147.362 125.15 147.79 124.707 148.351 124.373C148.913 124.04 149.588 123.873 150.377 123.873C151.191 123.873 151.875 124.04 152.428 124.373C152.99 124.707 153.417 125.15 153.71 125.704C154.003 126.257 154.149 126.872 154.149 127.547V128.487C154.149 129.146 154.003 129.752 153.71 130.306C153.425 130.859 153.002 131.303 152.44 131.636C151.887 131.97 151.208 132.137 150.402 132.137C149.604 132.137 148.921 131.97 148.351 131.636C147.79 131.303 147.362 130.859 147.069 130.306C146.776 129.752 146.63 129.146 146.63 128.487ZM148.668 127.547V128.487C148.668 128.812 148.729 129.122 148.852 129.415C148.982 129.708 149.177 129.944 149.438 130.123C149.698 130.302 150.019 130.391 150.402 130.391C150.792 130.391 151.11 130.302 151.354 130.123C151.606 129.944 151.793 129.708 151.916 129.415C152.038 129.122 152.099 128.812 152.099 128.487V127.547C152.099 127.213 152.034 126.9 151.903 126.607C151.781 126.306 151.594 126.066 151.342 125.887C151.09 125.708 150.768 125.618 150.377 125.618C150.003 125.618 149.686 125.708 149.425 125.887C149.173 126.066 148.982 126.306 148.852 126.607C148.729 126.9 148.668 127.213 148.668 127.547ZM155.199 138.497V137.545C155.199 136.877 155.346 136.267 155.639 135.714C155.94 135.16 156.371 134.717 156.933 134.383C157.494 134.049 158.17 133.882 158.959 133.882C159.773 133.882 160.456 134.049 161.01 134.383C161.571 134.717 161.994 135.16 162.279 135.714C162.572 136.267 162.719 136.877 162.719 137.545V138.497C162.719 139.164 162.572 139.774 162.279 140.328C161.994 140.881 161.575 141.325 161.022 141.658C160.469 141.992 159.789 142.159 158.983 142.159C158.186 142.159 157.502 141.992 156.933 141.658C156.371 141.325 155.94 140.881 155.639 140.328C155.346 139.774 155.199 139.164 155.199 138.497ZM157.25 137.545V138.497C157.25 138.822 157.315 139.131 157.445 139.424C157.584 139.717 157.783 139.957 158.043 140.145C158.304 140.324 158.617 140.413 158.983 140.413C159.398 140.413 159.732 140.324 159.984 140.145C160.237 139.957 160.416 139.721 160.521 139.437C160.635 139.144 160.692 138.83 160.692 138.497V137.545C160.692 137.211 160.627 136.898 160.497 136.605C160.375 136.312 160.184 136.076 159.923 135.897C159.671 135.718 159.35 135.628 158.959 135.628C158.576 135.628 158.259 135.718 158.007 135.897C157.755 136.076 157.563 136.312 157.433 136.605C157.311 136.898 157.25 137.211 157.25 137.545ZM159.691 126.668L151.012 140.56L149.511 139.693L158.19 125.801L159.691 126.668Z" fill="black"/>
<path d="M135.998 131.685H137.755C138.439 131.685 139.005 131.567 139.452 131.331C139.908 131.095 140.246 130.77 140.465 130.355C140.685 129.94 140.795 129.464 140.795 128.926C140.795 128.365 140.693 127.885 140.49 127.486C140.294 127.079 139.993 126.766 139.586 126.546C139.188 126.326 138.679 126.216 138.061 126.216C137.54 126.216 137.068 126.322 136.645 126.534C136.229 126.737 135.9 127.03 135.656 127.413C135.412 127.787 135.29 128.235 135.29 128.755H132.335C132.335 127.811 132.584 126.973 133.08 126.241C133.576 125.508 134.252 124.935 135.106 124.52C135.969 124.096 136.938 123.885 138.012 123.885C139.159 123.885 140.16 124.076 141.015 124.459C141.877 124.833 142.549 125.394 143.029 126.143C143.509 126.892 143.749 127.82 143.749 128.926C143.749 129.431 143.631 129.944 143.395 130.464C143.159 130.985 142.809 131.461 142.345 131.893C141.881 132.316 141.304 132.662 140.612 132.93C139.92 133.191 139.118 133.321 138.207 133.321H135.998V131.685ZM135.998 133.98V132.369H138.207C139.249 132.369 140.136 132.491 140.868 132.735C141.609 132.979 142.211 133.317 142.675 133.748C143.139 134.171 143.476 134.656 143.688 135.201C143.908 135.746 144.018 136.324 144.018 136.934C144.018 137.764 143.867 138.505 143.566 139.156C143.273 139.799 142.854 140.344 142.309 140.792C141.763 141.239 141.125 141.577 140.392 141.805C139.668 142.033 138.878 142.147 138.024 142.147C137.259 142.147 136.527 142.041 135.827 141.829C135.127 141.618 134.5 141.304 133.947 140.889C133.393 140.466 132.954 139.941 132.628 139.315C132.311 138.68 132.152 137.947 132.152 137.117H135.094C135.094 137.646 135.216 138.114 135.46 138.521C135.713 138.92 136.063 139.233 136.51 139.461C136.966 139.689 137.487 139.803 138.073 139.803C138.691 139.803 139.224 139.693 139.672 139.473C140.119 139.254 140.461 138.928 140.697 138.497C140.941 138.065 141.063 137.545 141.063 136.934C141.063 136.242 140.929 135.681 140.661 135.25C140.392 134.818 140.01 134.501 139.513 134.297C139.017 134.086 138.431 133.98 137.755 133.98H135.998Z" fill="black"/>
<path d="M130.138 124.129V125.74L123.034 141.902H119.933L127.025 126.473H117.821V124.129H130.138Z" fill="black"/>
</svg>
