<svg width="25" height="22" viewBox="0 0 25 22" fill="none" xmlns="http://www.w3.org/2000/svg">
<path d="M20.833 11V20.1666H4.16634V11M12.4997 20.1666V6.41665M12.4997 6.41665H7.81217C7.12151 6.41665 6.45913 6.1752 5.97075 5.74543C5.48237 5.31566 5.20801 4.73277 5.20801 4.12498C5.20801 3.51719 5.48237 2.9343 5.97075 2.50453C6.45913 2.07476 7.12151 1.83331 7.81217 1.83331C11.458 1.83331 12.4997 6.41665 12.4997 6.41665ZM12.4997 6.41665H17.1872C17.8778 6.41665 18.5402 6.1752 19.0286 5.74543C19.517 5.31566 19.7913 4.73277 19.7913 4.12498C19.7913 3.51719 19.517 2.9343 19.0286 2.50453C18.5402 2.07476 17.8778 1.83331 17.1872 1.83331C13.5413 1.83331 12.4997 6.41665 12.4997 6.41665ZM2.08301 6.41665H22.9163V11H2.08301V6.41665Z" stroke="#1E1E1E" stroke-width="2" stroke-linecap="round" stroke-linejoin="round"/>
</svg>
