<svg width="23" height="22" viewBox="0 0 23 22" fill="none" xmlns="http://www.w3.org/2000/svg">
<path d="M18.6319 19.25L12.643 13.475C12.1677 13.8417 11.6211 14.132 11.0032 14.3459C10.3853 14.5598 9.7278 14.6667 9.03068 14.6667C7.30372 14.6667 5.84214 14.09 4.64595 12.9365C3.44975 11.783 2.85166 10.3736 2.85166 8.70836C2.85166 7.04308 3.44975 5.6337 4.64595 4.48023C5.84214 3.32675 7.30372 2.75002 9.03068 2.75002C10.7576 2.75002 12.2192 3.32675 13.4154 4.48023C14.6116 5.6337 15.2097 7.04308 15.2097 8.70836C15.2097 9.38058 15.0988 10.0146 14.877 10.6104C14.6552 11.2063 14.3541 11.7334 13.9739 12.1917L19.9628 17.9667L18.6319 19.25ZM9.03068 12.8334C10.2189 12.8334 11.229 12.4323 12.0608 11.6302C12.8926 10.8281 13.3085 9.85419 13.3085 8.70836C13.3085 7.56252 12.8926 6.58856 12.0608 5.78648C11.229 4.98439 10.2189 4.58335 9.03068 4.58335C7.8424 4.58335 6.83237 4.98439 6.00058 5.78648C5.16879 6.58856 4.75289 7.56252 4.75289 8.70836C4.75289 9.85419 5.16879 10.8281 6.00058 11.6302C6.83237 12.4323 7.8424 12.8334 9.03068 12.8334Z" fill="#CACACA"/>
</svg>
