<svg width="257" height="81" viewBox="0 0 257 81" fill="none" xmlns="http://www.w3.org/2000/svg">
<path d="M127.35 0C144.853 0 153.361 13.3212 160.892 24.804C168.766 36.8115 175.662 46.9802 189.568 46.9802C206.229 46.9803 215.143 53.3707 223.522 59.3622C231.572 65.1188 239.104 70.4891 253.405 70.6555L254.091 70.6594L254.24 70.6633C255.778 70.7412 257 72.012 257 73.5687C257 75.1256 255.778 76.3973 254.24 76.4751L254.091 76.479L253.316 76.4742C237.151 76.2793 228.385 69.994 220.136 64.0961C211.958 58.2482 204.314 52.7999 189.568 52.7998C172.064 52.7998 163.556 39.4777 156.026 27.9948C148.152 15.9874 141.255 5.81865 127.35 5.81865C120.074 5.81866 115.1 7.72328 111.191 10.4792C107.173 13.311 104.147 17.119 100.83 21.3259C97.5964 25.4265 94.0726 29.927 89.251 33.3258C84.3218 36.8004 78.1673 39.0487 69.7388 39.0487C55.5659 39.0489 47.5317 48.3203 38.5444 58.9322C29.8213 69.2322 20.1449 80.8728 2.90933 80.8728C1.30236 80.8728 0 79.5705 0 77.9635C0 76.3565 1.30236 75.0542 2.90933 75.0542C17.0825 75.0542 25.1164 65.7827 34.1037 55.1707C42.8268 44.8707 52.5034 33.2302 69.7388 33.23C77.0144 33.23 81.9883 31.3253 85.898 28.5695C89.9152 25.7376 92.9428 21.9297 96.2599 17.7228C99.4932 13.6222 103.016 9.12165 107.838 5.72288C112.767 2.24826 118.921 9.50725e-06 127.35 0Z" fill="#009A5A"/>
</svg>
