<svg width="256" height="66" viewBox="0 0 256 66" fill="none" xmlns="http://www.w3.org/2000/svg">
<path d="M63.4327 0C71.725 9.51673e-07 77.824 1.03367 82.8247 2.64156C87.8072 4.24365 91.5848 6.38392 95.1217 8.38107C98.6735 10.3867 101.986 12.2486 106.34 13.6486C110.676 15.0428 116.162 16.0106 123.95 16.0106C132.421 16.0106 138.626 17.752 143.656 20.4719C148.618 23.1551 152.287 26.7229 155.658 29.9817C159.089 33.299 162.222 36.3074 166.381 38.5563C170.473 40.7685 175.709 42.3158 183.319 42.3158C199.911 42.3158 209.695 45.8324 219.189 49.2437C228.209 52.4845 236.957 55.6266 251.65 55.8198L253.091 55.8295L253.24 55.8334C254.778 55.9113 256 57.1821 256 58.7389C256 60.2957 254.778 61.5674 253.24 61.6453L253.091 61.6482L251.555 61.6384C235.888 61.429 226.418 58.0251 217.221 54.7203C207.911 51.3751 198.889 48.1355 183.319 48.1355C174.849 48.1354 168.644 46.3951 163.614 43.6752C158.651 40.9921 154.983 37.4241 151.613 34.1654C148.182 30.848 145.047 27.8398 140.888 25.5908C136.797 23.3786 131.56 21.8303 123.95 21.8303C115.658 21.8303 109.559 20.7966 104.558 19.1887C99.5754 17.5866 95.7973 15.4455 92.2602 13.4482C88.7086 11.4427 85.397 9.58065 81.0431 8.18073C76.7069 6.78654 71.221 5.81867 63.4327 5.81867C56.4854 5.81867 51.4498 8.98902 47.1699 14.1489C42.7816 19.4397 39.3895 26.5799 35.8023 34.1742C32.2991 41.5907 28.6005 49.4615 23.6509 55.4288C18.5928 61.527 12.0428 65.8622 2.90934 65.8622C1.30236 65.8622 0 64.5598 0 62.9529C0 61.3459 1.30236 60.0435 2.90934 60.0435C9.85664 60.0435 14.8922 56.8732 19.1721 51.7133C23.5605 46.4225 26.9526 39.2822 30.5397 31.688C34.0429 24.2715 37.7416 16.4006 42.6911 10.4333C47.7492 4.33521 54.2992 0 63.4327 0Z" fill="#85D800"/>
</svg>
