<svg width="285" height="109" viewBox="0 0 285 109" fill="none" xmlns="http://www.w3.org/2000/svg">
<path d="M141.351 0C167.556 0 179.961 20.947 186.652 31.1514C195.354 44.4203 198.343 46.9463 203.523 46.9463C224.808 46.9464 236.79 55.6145 245.649 61.9492C253.096 67.2736 257.611 70.4089 267.069 70.5996L268 70.6084L268.438 70.6143C277.625 70.8468 285 78.3663 285 87.6084C285 96.8506 277.625 104.371 268.438 104.604L268 104.608L267.009 104.603C246.341 104.338 234.594 95.8422 225.873 89.6064C218.187 84.1104 213.624 80.9473 203.523 80.9473C177.318 80.9473 164.912 60.0003 158.221 49.7959C149.519 36.5269 146.531 34 141.351 34C136.872 34 134.76 35.0693 133.322 36.083C131.256 37.5397 129.433 39.6675 125.915 44.1289C122.887 47.9689 118.164 54.1428 111.398 58.9121C104.004 64.1245 94.9955 67.2061 83.7812 67.2061C77.035 67.2062 72.9836 70.7305 63.3633 82.0898C55.286 91.6273 41.6395 109 17 109C7.61116 109 0 101.389 0 92C0 82.6112 7.61116 75 17 75C23.7465 75 27.7975 71.4758 37.418 60.1162C45.4952 50.5789 59.1418 33.2062 83.7812 33.2061C88.2599 33.2061 90.3714 32.1368 91.8096 31.123C93.8761 29.6663 95.6989 27.5387 99.2168 23.0771C102.245 19.2372 106.968 13.0633 113.733 8.29395C121.128 3.08157 130.136 9.7825e-06 141.351 0Z" fill="#0096C7" fill-opacity="0.07"/>
</svg>
